# xmcd
#
# Track frame offsets: 
#        150
#        12692
#        34162
#        49655
#        63140
#        84865
#        99672
#        111555
#        127287
#        148357
#
# Disc length: 2296 seconds
#
# Revision: 0
# Processed by: cddbd v1.5.2PL0 Copyright (c) Steve Scherf et al.
# Submitted via: ExactAudioCopyFreeDBPlugin 1.0
#
DISCID=9308f60a
DTITLE=Various Artist - Forever Soul
DYEAR=1998
DGENRE=Soul
TTITLE0=Major Lance - The Monkey Time
TTITLE1=Billy Paul - Me and Mrs. Jones
TTITLE2=Brick - Dazz
TTITLE3=Sly and the Family - Dance to the Music
TTITLE4=The Emotions with Earth, Wind and Fire - Boogie Wonderland
TTITLE5=Freddie Scott - Are You Lonely for Me, Baby?
TTITLE6=The Intruders - Cowboys to Girls
TTITLE7=Harold Melvin and the Blue Notes - Satisfaction Guaranteed (Or T
TTITLE7=ake Your Love Back)
TTITLE8=The Manhattans - Shining Star
TTITLE9=The Isley Brothers - Fight the Power
EXTD=
EXTT0=
EXTT1=
EXTT2=
EXTT3=
EXTT4=
EXTT5=
EXTT6=
EXTT7=
EXTT8=
EXTT9=
PLAYORDER=
